#!OML:ASF G:\JayActor3\Patient Classification 1\Patient 1\Session 5\male.ASF
:FULLY-SPECIFIED
:DEGREES
619
root 4.33522 17.4979 -4.8399 666.29 89.2238 648.773
lowerback 22.2438 -0.891661 1.02719
upperback 8.62792 -0.404879 -2.13296
thorax -3.02326 0.118448 -2.78849
lowerneck 3.82716 -0.742588 2.13051
upperneck -21.5544 0.298905 2.83552
head -7.22699 -0.0265796 0.510248
rclavicle 1.35174e-014 2.5842e-014
rhumerus -30.5836 -1.32276 -91.0464
rradius 28.0547
rwrist 2.94264
rhand -21.6898 -10.1502
rfingers 7.12502
rthumb 4.70834 -40.0779
lclavicle 1.35174e-014 2.5842e-014
lhumerus -33.3686 2.38759 84.47
lradius 31.573
lwrist 22.9357
lhand -20.5626 13.7022
lfingers 7.12502
lthumb 5.7967 43.6029
rfemur -19.0821 2.54248 19.4484
rtibia 55.2675
rfoot 19.9848 -7.90152
rtoes -4.87868
lfemur -42.9906 13.0903 -28.534
ltibia 39.128
lfoot 6.85069 -7.06331
ltoes -30.7777
620
root 4.47995 17.53 -4.84767 654.552 89.3092 636.879
lowerback 22.1682 -0.989297 1.07437
upperback 8.63253 -0.520237 -2.10245
thorax -2.98723 0.0622134 -2.75416
lowerneck 3.83619 -0.731402 2.14238
upperneck -21.5929 0.312389 2.80699
head -7.24127 -0.0188235 0.498088
rclavicle -9.14409e-015 -1.94809e-014
rhumerus -30.4964 -1.17518 -91.0832
rradius 28.1002
rwrist 2.60007
rhand -21.7274 -10.1709
rfingers 7.12502
rthumb 4.67201 -40.0994
lclavicle -9.14409e-015 -1.94809e-014
lhumerus -33.3062 2.26004 84.6214
lradius 31.5535
lwrist 22.8459
lhand -20.3543 13.6449
lfingers 7.12502
lthumb 5.9978 43.54
rfemur -20.4126 2.61751 19.3703
rtibia 56.4325
rfoot 18.9321 -7.0648
rtoes -5.53767
lfemur -42.5068 12.8459 -28.4603
ltibia 38.9556
lfoot 6.90928 -6.82459
ltoes -30.9155
621
root 4.6246 17.5616 -4.85464 643.723 89.3337 625.908
lowerback 22.0932 -1.06924 1.1124
upperback 8.63521 -0.614884 -2.06232
thorax -2.95219 0.0155558 -2.70949
lowerneck 3.84083 -0.718389 2.1576
upperneck -21.6304 0.331762 2.7923
head -7.25451 -0.00952059 0.489404
rclavicle 4.37326e-015 1.47101e-014
rhumerus -30.4289 -1.04038 -91.0898
rradius 28.1191
rwrist 2.32176
rhand -21.7321 -10.1932
rfingers 7.12502
rthumb 4.66748 -40.1218
lclavicle 4.37326e-015 1.47101e-014
lhumerus -33.2659 2.15396 84.7692
lradius 31.5116
lwrist 22.749
lhand -20.1474 13.6346
lfingers 7.12502
lthumb 6.19754 43.5239
rfemur -21.7649 2.67846 19.3239
rtibia 57.5346
rfoot 17.7812 -6.40495
rtoes -6.02999
lfemur -41.977 12.5838 -28.3412
ltibia 38.7504
lfoot 6.92854 -6.52723
ltoes -31.0698
622
root 4.76931 17.5926 -4.86073 636.637 89.3212 618.697
lowerback 22.0246 -1.12921 1.13773
upperback 8.63123 -0.687219 -2.01953
thorax -2.92618 -0.0209105 -2.66029
lowerneck 3.84005 -0.703702 2.17745
upperneck -21.66 0.356631 2.7923
head -7.26433 0.000951357 0.484277
rclavicle -4.77083e-015 5.96354e-015
rhumerus -30.388 -0.928175 -91.0712
rradius 28.1135
rwrist 2.11484
rhand -21.6939 -10.2051
rfingers 7.12502
rthumb 4.7043 -40.1329
lclavicle -4.77083e-015 5.96354e-015
lhumerus -33.252 2.0624 84.9066
lradius 31.4544
lwrist 22.6529
lhand -19.956 13.6343
lfingers 7.12502
lthumb 6.38233 43.5181
rfemur -23.1418 2.73219 19.3031
rtibia 58.5759
rfoot 16.5417 -6.02929
rtoes -6.44724
lfemur -41.4092 12.3282 -28.192
ltibia 38.5181
lfoot 6.91884 -6.18329
ltoes -31.2161
623
root 4.91409 17.623 -4.86635 633.919 89.2986 615.858
lowerback 21.9596 -1.17112 1.15116
upperback 8.61726 -0.740199 -1.9807
thorax -2.91144 -0.048688 -2.61333
lowerneck 3.83014 -0.687585 2.20134
upperneck -21.6773 0.385805 2.80512
head -7.26858 0.0122662 0.48228
rclavicle 6.36111e-015 -9.54166e-015
rhumerus -30.3767 -0.839011 -91.0342
rradius 28.0866
rwrist 1.96949
rhand -21.6282 -10.2242
rfingers 7.12502
rthumb 4.76774 -40.1505
lclavicle 6.36111e-015 -9.54166e-015
lhumerus -33.2636 1.9852 85.0272
lradius 31.3861
lwrist 22.5617
lhand -19.7986 13.6256
lfingers 7.12502
lthumb 6.53423 43.5048
rfemur -24.5483 2.77869 19.2961
rtibia 59.5521
rfoot 15.2178 -6.02505
rtoes -6.87113
lfemur -40.8167 12.0888 -28.0299
ltibia 38.2653
lfoot 6.88906 -5.80266
ltoes -31.3357
624
root 5.05893 17.6523 -4.87191 635.49 89.2821 617.313
lowerback 21.8951 -1.19475 1.15037
upperback 8.59449 -0.774044 -1.94957
thorax -2.90533 -0.0677819 -2.5712
lowerneck 3.81449 -0.66997 2.22539
upperneck -21.6881 0.41879 2.82802
head -7.26972 0.0246864 0.483228
rclavicle 7.55382e-015 2.0276e-014
rhumerus -30.3926 -0.776503 -90.9786
rradius 28.0417
rwrist 1.87658
rhand -21.5566 -10.2282
rfingers 7.12502
rthumb 4.83689 -40.153
lclavicle 7.55382e-015 2.0276e-014
lhumerus -33.2954 1.91723 85.1311
lradius 31.3087
lwrist 22.4772
lhand -19.6591 13.6306
lfingers 7.12502
lthumb 6.66893 43.5056
rfemur -25.9846 2.82427 19.2891
rtibia 60.4544
rfoot 13.8151 -6.37172
rtoes -7.38908
lfemur -40.2073 11.8853 -27.8761
ltibia 37.9938
lfoot 6.83167 -5.42684
ltoes -31.5187
625
root 5.2042 17.6807 -4.87758 641.011 89.2705 622.722
lowerback 21.8312 -1.20155 1.13665
upperback 8.56445 -0.790258 -1.92863
thorax -2.90628 -0.0787584 -2.53688
lowerneck 3.79299 -0.653011 2.25302
upperneck -21.6948 0.452346 2.85743
head -7.26852 0.0366748 0.485633
rclavicle 1.66979e-014 7.55382e-015
rhumerus -30.4318 -0.745958 -90.9084
rradius 27.9786
rwrist 1.81856
rhand -21.4706 -10.235
rfingers 7.12502
rthumb 4.91991 -40.1579
lclavicle 1.66979e-014 7.55382e-015
lhumerus -33.3456 1.8612 85.2135
lradius 31.227
lwrist 22.3994
lhand -19.5109 13.6569
lfingers 7.12502
lthumb 6.81198 43.5273
rfemur -27.437 2.87133 19.277
rtibia 61.2644
rfoot 12.3216 -7.02381
rtoes -7.927
lfemur -39.5834 11.7207 -27.7317
ltibia 37.71
lfoot 6.75895 -5.05407
ltoes -31.7036
626
root 5.34997 17.708 -4.88344 649.668 89.2527 631.272
lowerback 21.7691 -1.19563 1.11433
upperback 8.52677 -0.793194 -1.91811
thorax -2.9157 -0.0836593 -2.51203
lowerneck 3.77311 -0.637464 2.28454
upperneck -21.7019 0.484542 2.88743
head -7.26778 0.0476074 0.487684
rclavicle 1.74931e-014 3.61788e-014
rhumerus -30.4951 -0.744662 -90.8265
rradius 27.8993
rwrist 1.77685
rhand -21.3859 -10.2444
rfingers 7.12502
rthumb 5.00171 -40.1654
lclavicle 1.74931e-014 3.61788e-014
lhumerus -33.413 1.82873 85.2704
lradius 31.1342
lwrist 22.3152
lhand -19.3412 13.688
lfingers 7.12502
lthumb 6.97582 43.5531
rfemur -28.8971 2.9216 19.2556
rtibia 61.9649
rfoot 10.7567 -7.88978
rtoes -8.44739
lfemur -38.9499 11.5986 -27.602
ltibia 37.4183
lfoot 6.67072 -4.70335
ltoes -31.9155
627
root 5.49619 17.7339 -4.88955 660.447 89.2089 641.954
lowerback 21.7114 -1.17851 1.08388
upperback 8.48727 -0.783778 -1.91279
thorax -2.9285 -0.0826773 -2.49106
lowerneck 3.7536 -0.623383 2.32163
upperneck -21.7152 0.513864 2.90835
head -7.26911 0.0574614 0.486068
rclavicle 4.77083e-015 -7.95139e-016
rhumerus -30.5709 -0.772463 -90.7281
rradius 27.8036
rwrist 1.74373
rhand -21.2893 -10.2582
rfingers 7.12502
rthumb 5.09504 -40.177
lclavicle 4.77083e-015 -7.95139e-016
lhumerus -33.4916 1.82011 85.3064
lradius 31.0358
lwrist 22.2209
lhand -19.1298 13.721
lfingers 7.12502
lthumb 7.17989 43.5792
rfemur -30.3491 2.98016 19.2275
rtibia 62.5364
rfoot 9.15027 -8.87244
rtoes -8.85407
lfemur -38.3062 11.5127 -27.4781
ltibia 37.128
lfoot 6.57688 -4.36575
ltoes -32.1125
628
root 5.64287 17.7578 -4.89541 671.149 89.1271 652.574
lowerback 21.665 -1.15375 1.05082
upperback 8.44563 -0.765156 -1.90977
thorax -2.94884 -0.0772688 -2.47324
lowerneck 3.74137 -0.611144 2.36416
upperneck -21.7337 0.539533 2.91927
head -7.27339 0.0657722 0.480573
rclavicle -1.27222e-014 -2.22639e-014
rhumerus -30.6598 -0.826672 -90.6146
rradius 27.6915
rwrist 1.71928
rhand -21.169 -10.2971
rfingers 7.12502
rthumb 5.21114 -40.2131
lclavicle -1.27222e-014 -2.22639e-014
lhumerus -33.5797 1.82967 85.3237
lradius 30.9309
lwrist 22.1072
lhand -18.8938 13.7641
lfingers 7.12502
lthumb 7.40762 43.6144
rfemur -31.7754 3.05267 19.1996
rtibia 62.9656
rfoot 7.5465 -9.89528
rtoes -9.10218
lfemur -37.653 11.4652 -27.3555
ltibia 36.8447
lfoot 6.4858 -4.04893
ltoes -32.2809
629
root 5.7899 17.7797 -4.90073 680.342 89.0102 661.7
lowerback 21.6232 -1.12344 1.01079
upperback 8.40769 -0.740121 -1.90303
thorax -2.96699 -0.0686707 -2.44899
lowerneck 3.73478 -0.599455 2.40491
upperneck -21.7598 0.562397 2.91883
head -7.28111 0.0736744 0.471913
rclavicle -9.54166e-015 -1.82882e-014
rhumerus -30.7512 -0.8906 -90.4851
rradius 27.5634
rwrist 1.70374
rhand -21.0496 -10.3473
rfingers 7.12502
rthumb 5.32646 -40.2603
lclavicle -9.54166e-015 -1.82882e-014
lhumerus -33.6665 1.85737 85.3291
lradius 30.8227
lwrist 21.9816
lhand -18.6558 13.8247
lfingers 7.12502
lthumb 7.63736 43.6668
rfemur -33.1693 3.14747 19.1709
rtibia 63.2435
rfoot 6.00598 -10.8839
rtoes -9.17704
lfemur -36.9926 11.4333 -27.2264
ltibia 36.5747
lfoot 6.39717 -3.74877
ltoes -32.4369
630
root 5.93728 17.7991 -4.90498 687.679 88.8736 668.986
lowerback 21.5864 -1.08953 0.959765
upperback 8.37734 -0.711491 -1.893
thorax -2.97914 -0.0580648 -2.41576
lowerneck 3.72853 -0.588968 2.44402
upperneck -21.7871 0.581215 2.90812
head -7.28921 0.0805602 0.460482
rclavicle -1.98785e-015 -1.31198e-014
rhumerus -30.8391 -0.966528 -90.342
rradius 27.4204
rwrist 1.71231
rhand -20.9438 -10.3942
rfingers 7.12502
rthumb 5.42862 -40.3047
lclavicle -1.98785e-015 -1.31198e-014
lhumerus -33.7452 1.87899 85.3287
lradius 30.718
lwrist 21.8645
lhand -18.4485 13.8874
lfingers 7.12502
lthumb 7.83747 43.7221
rfemur -34.5256 3.26994 19.1343
rtibia 63.3698
rfoot 4.57748 -11.7641
rtoes -9.19645
lfemur -36.3236 11.4268 -27.0992
ltibia 36.319
lfoot 6.30778 -3.48482
ltoes -32.5853
631
root 6.08513 17.8162 -4.90825 693.494 88.7321 674.765
lowerback 21.5518 -1.05672 0.899405
upperback 8.35323 -0.685229 -1.8824
thorax -2.9857 -0.0483664 -2.37602
lowerneck 3.72105 -0.576659 2.48158
upperneck -21.8098 0.600015 2.88817
head -7.29549 0.0883225 0.446296
rclavicle -2.54444e-014 -3.10104e-014
rhumerus -30.9244 -1.04779 -90.1917
rradius 27.2665
rwrist 1.75695
rhand -20.8524 -10.4419
rfingers 7.12502
rthumb 5.51687 -40.3501
lclavicle -2.54444e-014 -3.10104e-014
lhumerus -33.8135 1.89641 85.319
lradius 30.6167
lwrist 21.7632
lhand -18.3065 13.9345
lfingers 7.12502
lthumb 7.97448 43.7641
rfemur -35.8465 3.4137 19.0813
rtibia 63.3461
rfoot 3.29926 -12.494
rtoes -9.02822
lfemur -35.6481 11.4294 -26.9768
ltibia 36.0779
lfoot 6.22603 -3.23968
ltoes -32.6855
632
root 6.2334 17.8309 -4.91058 698.317 88.5948 679.56
lowerback 21.5127 -1.02571 0.828879
upperback 8.33593 -0.662482 -1.87134
thorax -2.9827 -0.0401483 -2.32913
lowerneck 3.70833 -0.561366 2.51373
upperneck -21.8255 0.619821 2.85927
head -7.29844 0.0978392 0.430014
rclavicle 4.37326e-015 2.22639e-014
rhumerus -31.0053 -1.13108 -90.0354
rradius 27.1089
rwrist 1.84018
rhand -20.7897 -10.4627
rfingers 7.12502
rthumb 5.57743 -40.3693
lclavicle 4.37326e-015 2.22639e-014
lhumerus -33.8706 1.90436 85.3034
lradius 30.5262
lwrist 21.6879
lhand -18.2242 13.9693
lfingers 7.12502
lthumb 8.05399 43.7958
rfemur -37.1432 3.57597 19.0048
rtibia 63.181
rfoot 2.19726 -13.0396
rtoes -8.68972
lfemur -34.9733 11.4495 -26.873
ltibia 35.8481
lfoot 6.13962 -3.04021
ltoes -32.8477
